<svg width="80" height="80" viewBox="0 0 80 80" fill="none" xmlns="http://www.w3.org/2000/svg">
<rect width="80" height="80" fill="black"/>
<path d="M12.2939 8.75L17.3371 65.3081L39.9658 71.5894L62.6577 65.3L67.7065 8.75H12.2939V8.75ZM55.5502 40.305L54.0814 53.9875L54.0871 55.1594L40.0002 59.0937V59.0944L39.9889 59.1037L25.7896 55.2131L24.8289 44.375H31.7921L32.2858 49.8537L40.0027 51.9131L40.0002 51.9225V51.9025L47.7464 49.7181L48.564 40.625H32.3721L32.2333 39.1531L31.9171 35.6237L31.7514 33.75H49.1802L49.814 26.875H23.2683L23.1289 25.2569L22.8127 21.4881L22.6471 19.375H57.3952L57.2283 21.4587L55.5502 40.305" fill="url(#paint0_linear_136_14)"/>
<defs>
<linearGradient id="paint0_linear_136_14" x1="40.0002" y1="8.75" x2="40.0002" y2="71.5894" gradientUnits="userSpaceOnUse">
<stop stop-color="#FFBF00"/>
<stop offset="1" stop-color="#F2A50C"/>
</linearGradient>
</defs>
</svg>
