<svg width="81" height="81" viewBox="0 0 81 81" fill="none" xmlns="http://www.w3.org/2000/svg">
<path d="M12.2083 71.7763L5.92456 1.29443H74.9746L68.6846 71.7657L40.4077 79.6051L12.2083 71.7763V71.7763Z" fill="#FFBB00"/>
<path d="M40.4502 73.6132L63.2996 67.2782L68.6752 7.05695H40.4502V73.6132Z" fill="#FFBB00"/>
<path d="M40.4502 32.5926H51.8889L52.6789 23.7407H40.4502V15.0963H62.1264L61.9189 17.4157L59.7939 41.2369H40.4502V32.5926V32.5926Z" fill="#332200"/>
<path d="M40.5013 55.0426L40.4632 55.0538L30.8363 52.4544L30.2207 45.5601H21.5444L22.7551 59.1332L40.4619 64.0476L40.5013 64.0363V55.0426V55.0426Z" fill="#332200"/>
<path d="M51.1539 40.8713L50.1127 52.4476L40.4714 55.0501V64.0438L58.1927 59.1326L58.3227 57.672L59.8264 40.8713H51.1539Z" fill="#332200"/>
<path d="M40.4794 15.0963V23.7407H19.5994L19.4263 21.7982L19.0326 17.4157L18.8257 15.0963H40.4794V15.0963ZM40.4501 32.5938V41.2382H30.9444L30.7713 39.2957L30.3769 34.9132L30.1707 32.5938H40.4501V32.5938Z" fill="#332200"/>
</svg>
