<svg width="256" height="256" viewBox="0 0 256 256" fill="none" xmlns="http://www.w3.org/2000/svg">
<path d="M227.314 0H28.6857C12.9714 0 0 12.9714 0 28.6857V227.314C0 243.029 12.9714 256 28.6857 256H227.314C243.029 256 256 243.029 256 227.314V28.6857C256 12.9714 243.029 0 227.314 0ZM201.371 162.457C201.371 164.857 199.314 165.886 196.914 166.914C187.371 171.029 177.143 174.743 166.171 174.743C150.8 174.743 143.657 165.2 125.2 165.2C111.886 165.2 97.8857 170 86.6286 175.086C85.9429 175.429 85.2571 175.429 84.5714 175.771V201.714C84.5714 202.743 84.5714 203.771 84.2286 204.457V205.143C82.8571 209.943 78.4 213.314 73.3143 213.314C66.8571 213.314 61.7143 208.171 61.7143 201.714V76.8C57.2571 73.3714 54.2286 67.9429 54.2286 61.7714C54.2286 51.2 62.7429 42.6286 73.3714 42.6286C83.9429 42.6286 92.5143 51.1429 92.5143 61.7714C92.5143 67.9429 89.7714 73.3714 85.0286 76.8V87.3714C86.0571 87.0286 87.0857 86.6857 88.1143 86C98.6857 81.5429 111.314 77.8286 123.257 77.8286C136.229 77.8286 146.457 81.2571 158.057 85.6571C160.457 86.6857 162.857 87.0286 165.543 87.0286C178.514 87.0286 192.857 77.8286 196.286 77.8286C199.029 77.8286 201.429 79.8857 201.429 82.2857V162.457H201.371Z" fill="#FFBB00"/>
</svg>
