<svg width="77" height="77" viewBox="0 0 77 77" fill="none" xmlns="http://www.w3.org/2000/svg">
<path fill-rule="evenodd" clip-rule="evenodd" d="M38.4976 0.802002C17.2384 0.802002 0 18.1066 0 39.4572C0 56.532 11.0302 71.0194 26.3316 76.1315C28.2566 76.4864 28.9592 75.2929 28.9592 74.269C28.9592 73.3511 28.9255 70.9207 28.9063 67.6958C18.1961 70.0316 15.9366 62.5139 15.9366 62.5139C14.1873 58.0497 11.6631 56.861 11.6631 56.861C8.16681 54.462 11.9278 54.5107 11.9278 54.5107C15.7898 54.7838 17.8231 58.4943 17.8231 58.4943C21.2592 64.401 26.8345 62.6956 29.029 61.7048C29.3779 59.2071 30.3741 57.5035 31.4737 56.5374C22.9243 55.5616 13.937 52.247 13.937 37.436C13.937 33.2154 15.4361 29.766 17.9001 27.0626C17.5031 26.0845 16.182 22.1563 18.2755 16.8342C18.2755 16.8342 21.5095 15.7953 28.863 20.7961C31.9357 19.9383 35.2275 19.5112 38.5024 19.4938C41.7725 19.5106 45.0667 19.9383 48.1418 20.7961C55.4905 15.7953 58.7173 16.8342 58.7173 16.8342C60.818 22.1563 59.4969 26.0845 59.0999 27.0626C61.5687 29.766 63.0582 33.2154 63.0582 37.436C63.0582 52.2831 54.0564 55.552 45.4805 56.5085C46.8617 57.702 48.0937 60.0595 48.0937 63.6665C48.0937 68.8339 48.0456 73.0009 48.0456 74.2696C48.0456 75.3037 48.7386 76.5069 50.6925 76.1273C65.9794 71.005 77 56.5271 77 39.4572C77 18.1066 59.7616 0.802002 38.4976 0.802002Z" fill="#FFBB00"/>
</svg>
