<svg width="40" height="40" viewBox="0 0 40 40" fill="none" xmlns="http://www.w3.org/2000/svg">
<path fill-rule="evenodd" clip-rule="evenodd" d="M19.9987 0.416504C8.955 0.416504 0 9.40588 0 20.4971C0 29.3671 5.73 36.8931 13.6788 39.5487C14.6788 39.7331 15.0437 39.1131 15.0437 38.5812C15.0437 38.1043 15.0262 36.8418 15.0162 35.1665C9.4525 36.3799 8.27875 32.4746 8.27875 32.4746C7.37 30.1556 6.05875 29.5381 6.05875 29.5381C4.2425 28.2918 6.19625 28.3171 6.19625 28.3171C8.2025 28.459 9.25875 30.3865 9.25875 30.3865C11.0437 33.4549 13.94 32.569 15.08 32.0543C15.2613 30.7568 15.7787 29.8718 16.35 29.3699C11.9087 28.8631 7.24 27.1412 7.24 19.4471C7.24 17.2546 8.01875 15.4628 9.29875 14.0584C9.0925 13.5503 8.40625 11.5096 9.49375 8.74494C9.49375 8.74494 11.1737 8.20525 14.9937 10.8031C16.59 10.3574 18.3 10.1356 20.0012 10.1265C21.7 10.1353 23.4112 10.3574 25.0088 10.8031C28.8263 8.20525 30.5025 8.74494 30.5025 8.74494C31.5938 11.5096 30.9075 13.5503 30.7013 14.0584C31.9838 15.4628 32.7575 17.2546 32.7575 19.4471C32.7575 27.1599 28.0812 28.8581 23.6262 29.3549C24.3437 29.9749 24.9837 31.1996 24.9837 33.0734C24.9837 35.7578 24.9587 37.9224 24.9587 38.5815C24.9587 39.1187 25.3187 39.7437 26.3337 39.5465C34.275 36.8856 40 29.3646 40 20.4971C40 9.40588 31.045 0.416504 19.9987 0.416504Z" fill="#FFBB00"/>
</svg>
