<svg width="80" height="80" viewBox="0 0 80 80" fill="none" xmlns="http://www.w3.org/2000/svg">
<path d="M17.4087 72.7212L12.3818 16.3394H67.6181L62.5862 72.7125L39.9662 78.9831L17.4087 72.7212Z" fill="#FFBB00"/>
<path d="M40 74.19L58.2775 69.1225L62.5781 20.95H40V74.19Z" fill="#FFBB00"/>
<path d="M40 41.8613H30.8494L30.2181 34.7794H40V27.8644H22.6606L22.8256 29.72L24.5256 48.7756H40V41.8613ZM40 59.8194L39.9694 59.8275L32.2688 57.7475L31.7763 52.2331H24.8344L25.8031 63.0906L39.9681 67.0231L40 67.0137V59.8194Z" fill="#332200"/>
<path d="M39.9761 41.8613V48.7756H48.4911L47.6886 57.7438L39.9761 59.8256V67.0194L54.1523 63.0906L54.2561 61.9219L55.8811 43.7175L56.0498 41.8613H54.1861H39.9761ZM39.9761 27.8644V34.7794H56.6792L56.8173 33.225L57.133 29.72L57.2986 27.8644H39.9761Z" fill="#332200"/>
</svg>
