<svg width="80" height="80" viewBox="0 0 80 80" fill="none" xmlns="http://www.w3.org/2000/svg">
<path d="M1.31982 1.31873H78.6807V78.6806H1.31982V1.31873Z" fill="url(#paint0_linear_35_16)"/>
<path d="M72.3494 60.2293C71.7827 56.7 69.4813 53.7356 62.6644 50.9713C60.2963 49.8831 57.6563 49.1038 56.8696 47.3092C56.5903 46.2648 56.5532 45.6765 56.73 45.0443C57.2373 42.9926 59.6864 42.353 61.6275 42.9414C62.8776 43.3603 64.0611 44.3238 64.7748 45.8607C68.1131 43.699 68.1063 43.7132 70.4373 42.2276C69.5839 40.9045 69.1285 40.2939 68.5698 39.7279C66.562 37.4852 63.8262 36.3302 59.4509 36.4186L57.1718 36.7134C54.9879 37.2652 52.9066 38.4116 51.6861 39.9485C48.0239 44.1038 49.0683 51.3761 53.5245 54.369C57.9146 57.664 64.3639 58.4137 65.1876 61.4949C65.9891 65.267 62.4154 66.4882 58.8632 66.0543C56.2455 65.5099 54.7895 64.1794 53.2155 61.76C50.3185 63.4366 50.3185 63.4366 47.3398 65.1496C48.0462 66.6939 48.7884 67.3929 49.9724 68.7308C55.5762 74.4149 69.5994 74.1356 72.1145 65.5321C72.2165 65.2367 72.8938 63.2666 72.3494 60.2293V60.2293ZM43.3755 36.874H36.1396L36.1099 55.5815C36.1099 59.56 36.3157 63.2073 35.6687 64.3252C34.6101 66.524 31.8669 66.2515 30.6167 65.8251C29.3443 65.1997 28.6973 64.3104 27.9477 63.0534C27.7419 62.6925 27.5874 62.4132 27.5355 62.3916L21.6523 65.9944C22.6306 68.0022 24.0717 69.7449 25.9176 70.877C28.675 72.532 32.3811 73.0393 36.257 72.1494C38.7796 71.4147 40.9561 69.8926 42.0957 67.5758C43.7432 64.5384 43.3897 60.8621 43.3749 56.7958C43.4119 50.1618 43.3755 43.529 43.3755 36.874Z" fill="black"/>
<defs>
<linearGradient id="paint0_linear_35_16" x1="40.0003" y1="1.31873" x2="40.0003" y2="78.6806" gradientUnits="userSpaceOnUse">
<stop stop-color="#FFBF00"/>
<stop offset="1" stop-color="#F2A50C"/>
</linearGradient>
</defs>
</svg>
