<svg width="81" height="81" viewBox="0 0 81 81" fill="none" xmlns="http://www.w3.org/2000/svg">
<path d="M1.32959 1.32861H79.5696V79.5696H1.32959V1.32861Z" fill="#FFBB00"/>
<path d="M73.1667 60.9086C72.5936 57.3392 70.2661 54.3411 63.3717 51.5455C60.9767 50.4448 58.3067 49.6567 57.5111 47.8417C57.2286 46.7855 57.1911 46.1905 57.3698 45.5511C57.8829 43.4761 60.3598 42.8292 62.3229 43.4242C63.5873 43.848 64.7842 44.8223 65.5061 46.3767C68.8823 44.1905 68.8754 44.2048 71.2329 42.7023C70.3698 41.3642 69.9092 40.7467 69.3442 40.1742C67.3136 37.9061 64.5467 36.738 60.1217 36.8273L57.8167 37.1255C55.6079 37.6836 53.5029 38.843 52.2686 40.3973C48.5648 44.5998 49.6211 51.9548 54.1279 54.9817C58.5679 58.3142 65.0904 59.0723 65.9236 62.1886C66.7342 66.0036 63.1198 67.2386 59.5273 66.7998C56.8798 66.2492 55.4073 64.9036 53.8154 62.4567C50.8854 64.1523 50.8854 64.1523 47.8729 65.8848C48.5873 67.4467 49.3379 68.1536 50.5354 69.5067C56.2029 75.2555 70.3854 74.973 72.9292 66.2717C73.0323 65.973 73.7173 63.9805 73.1667 60.9086V60.9086ZM43.8636 37.288H36.5454L36.5154 56.208C36.5154 60.2317 36.7236 63.9205 36.0692 65.0511C34.9986 67.2748 32.2242 66.9992 30.9598 66.568C29.6729 65.9355 29.0186 65.0361 28.2604 63.7648C28.0523 63.3998 27.8961 63.1173 27.8436 63.0955L21.8936 66.7392C22.8829 68.7698 24.3404 70.5323 26.2073 71.6773C28.9961 73.3511 32.7442 73.8642 36.6642 72.9642C39.2154 72.2211 41.4167 70.6817 42.5692 68.3386C44.2354 65.2667 43.8779 61.5486 43.8629 57.4361C43.9004 50.7267 43.8636 44.0186 43.8636 37.288Z" fill="#332200"/>
</svg>
