<svg width="40" height="40" viewBox="0 0 40 40" fill="none" xmlns="http://www.w3.org/2000/svg">
<path fill-rule="evenodd" clip-rule="evenodd" d="M1.00906 13.4791H8.80531V38.1819H1.00906V13.4791ZM4.70844 10.3894H4.65188C1.82969 10.3894 0 8.50093 0 6.10718C0 3.66686 1.88375 1.81812 4.7625 1.81812C7.63875 1.81812 9.4075 3.66218 9.46375 6.1003C9.46375 8.49374 7.63875 10.3894 4.70844 10.3894ZM40 38.1819H31.1594V25.3984C31.1594 22.0525 29.7766 19.7681 26.7356 19.7681C24.4097 19.7681 23.1162 21.3097 22.5141 22.795C22.2884 23.3281 22.3234 24.0709 22.3234 24.8137V38.1815H13.5653C13.5653 38.1815 13.6781 15.5372 13.5653 13.4787H22.3234V17.3556C22.8409 15.6606 25.6394 13.2412 30.1056 13.2412C35.6466 13.2412 39.9997 16.7944 39.9997 24.4459V38.1819H40Z" fill="#FFBB00"/>
</svg>
