<svg width="24" height="26" viewBox="0 0 24 26" fill="none" xmlns="http://www.w3.org/2000/svg">
<path d="M19.6031 9.08165C19.35 8.99261 19.0969 8.90852 18.8438 8.82938C18.8859 8.64637 18.9234 8.46335 18.9609 8.28033C19.5375 5.3323 19.1578 2.963 17.8781 2.18147C16.6453 1.43457 14.6344 2.21115 12.6 4.08087C12.3984 4.26389 12.2016 4.4568 12.0141 4.64971C11.8875 4.5211 11.7563 4.39249 11.625 4.26884C9.49219 2.27051 7.35469 1.42962 6.075 2.2161C4.84688 2.96794 4.48125 5.19875 4.99687 7.9885C5.04844 8.2655 5.10469 8.53755 5.17031 8.81454C4.87031 8.90358 4.575 9.0025 4.29844 9.10638C1.79531 10.0215 0 11.4658 0 12.9596C0 14.5029 1.9125 16.0511 4.51406 16.9909C4.725 17.0651 4.93594 17.1393 5.15156 17.2036C5.08125 17.5004 5.02031 17.7922 4.96406 18.0939C4.47188 20.8391 4.85625 23.0155 6.08438 23.7624C7.35 24.5341 9.47812 23.7427 11.55 21.8284C11.7141 21.6751 11.8781 21.5168 12.0422 21.3486C12.2484 21.5613 12.4641 21.7641 12.6797 21.962C14.6859 23.7822 16.6688 24.5192 17.8922 23.7723C19.1578 23.0007 19.5703 20.6611 19.0359 17.812C18.9938 17.5943 18.9469 17.3717 18.8953 17.1442C19.0453 17.0997 19.1906 17.0502 19.3359 17.0008C22.0406 16.056 24 14.5276 24 12.9596C24 11.4608 22.1531 10.0066 19.6031 9.08165ZM13.2609 4.88218C15.0047 3.27956 16.6313 2.65137 17.3719 3.10149C18.1641 3.58129 18.4688 5.52027 17.9719 8.06764C17.9391 8.23582 17.9062 8.39905 17.8641 8.56228C16.8234 8.31496 15.7687 8.13689 14.7094 8.03796C14.1 7.11794 13.4344 6.23749 12.7125 5.41145C12.8953 5.22843 13.0734 5.05531 13.2609 4.88218ZM7.8375 15.5268C8.07656 15.9571 8.32031 16.3874 8.57812 16.8079C7.84688 16.7238 7.12031 16.6001 6.40313 16.4369C6.60938 15.7246 6.86719 14.9876 7.16719 14.2358C7.38281 14.671 7.60312 15.1014 7.8375 15.5268ZM6.41719 9.57628C7.09219 9.418 7.80937 9.28939 8.55469 9.19047C8.30625 9.60101 8.0625 10.0215 7.83281 10.4468C7.60313 10.8673 7.37812 11.2976 7.16719 11.7329C6.87187 10.9959 6.62344 10.2737 6.41719 9.57628ZM7.70156 12.9843C8.01094 12.3017 8.34844 11.634 8.70469 10.9761C9.06094 10.3182 9.44531 9.68016 9.84844 9.05197C10.5516 8.99756 11.2688 8.96788 12 8.96788C12.7312 8.96788 13.4531 8.99756 14.1516 9.05197C14.55 9.67521 14.9297 10.3133 15.2906 10.9662C15.6516 11.6191 15.9891 12.2869 16.3078 12.9645C15.9937 13.6471 15.6562 14.3198 15.2953 14.9827C14.9391 15.6405 14.5594 16.2786 14.1609 16.9117C13.4625 16.9661 12.7359 16.9909 12 16.9909C11.2641 16.9909 10.5516 16.9661 9.8625 16.9216C9.45469 16.2934 9.07031 15.6504 8.70938 14.9925C8.34844 14.3347 8.01562 13.6669 7.70156 12.9843ZM16.1672 15.5169C16.4062 15.0816 16.6313 14.6414 16.8516 14.1962C17.1516 14.9134 17.4141 15.6405 17.6437 16.3874C16.9172 16.5605 16.1812 16.6941 15.4406 16.7831C15.6937 16.3676 15.9328 15.9423 16.1672 15.5169ZM16.8422 11.7329C16.6219 11.2976 16.3969 10.8623 16.1625 10.4369C15.9328 10.0165 15.6938 9.60101 15.4453 9.19047C16.2 9.28939 16.9219 9.42294 17.5969 9.58617C17.3812 10.3182 17.1281 11.0305 16.8422 11.7329ZM12.0094 6.16824C12.5016 6.73212 12.9656 7.32569 13.3969 7.93904C12.4687 7.89452 11.5359 7.89452 10.6078 7.93904C11.0672 7.30096 11.5406 6.70739 12.0094 6.16824ZM6.57187 3.13612C7.35937 2.65137 9.10781 3.34387 10.95 5.0652C11.0672 5.17402 11.1844 5.29273 11.3062 5.41145C10.5797 6.23749 9.90938 7.11794 9.29531 8.03796C8.23594 8.13689 7.18594 8.31001 6.14531 8.55238C6.08438 8.30012 6.03281 8.04291 5.98125 7.7857C5.54062 5.39166 5.83125 3.58624 6.57187 3.13612ZM5.42344 16.1747C5.22656 16.1154 5.03438 16.0511 4.84219 15.9818C3.84375 15.6504 2.70937 15.1261 1.88906 14.4386C1.41562 14.0923 1.09687 13.5581 1.00781 12.9596C1.00781 12.0544 2.48906 10.897 4.62656 10.1105C4.89375 10.0116 5.16563 9.92253 5.4375 9.83844C5.75625 10.9118 6.14062 11.9654 6.58594 12.9843C6.13594 14.0181 5.74687 15.0865 5.42344 16.1747ZM10.8891 21.0222C10.1156 21.7691 9.22031 22.3626 8.24531 22.7682C7.725 23.0304 7.125 23.0551 6.59063 22.8325C5.84531 22.3775 5.53594 20.6314 5.95781 18.2819C6.00937 18.0049 6.06563 17.7279 6.13125 17.4558C7.18125 17.6933 8.24062 17.8565 9.31406 17.9406C9.93281 18.8656 10.6125 19.7509 11.3391 20.5819C11.1891 20.7353 11.0391 20.8837 10.8891 21.0222ZM12.0375 19.8202C11.5594 19.2761 11.0813 18.6726 10.6172 18.0247C11.0672 18.0445 11.5312 18.0543 12 18.0543C12.4828 18.0543 12.9562 18.0445 13.425 18.0197C12.9937 18.6479 12.5297 19.2464 12.0375 19.8202ZM18.1641 21.3041C18.1219 21.9076 17.8406 22.4714 17.3906 22.8523C16.6453 23.3074 15.0563 22.7138 13.3406 21.1607C13.1438 20.9826 12.9469 20.7897 12.7453 20.5918C13.4625 19.7559 14.1234 18.8705 14.7234 17.9406C15.7969 17.8466 16.8656 17.6735 17.9203 17.4212C17.9672 17.624 18.0094 17.8268 18.0469 18.0247C18.2766 19.0931 18.3141 20.206 18.1641 21.3041ZM19.0172 15.9868C18.8859 16.0313 18.7547 16.0758 18.6188 16.1154C18.2906 15.0371 17.8875 13.9835 17.4234 12.9596C17.8734 11.9505 18.2531 10.9118 18.5719 9.84833C18.8156 9.92253 19.05 10.0017 19.275 10.0808C21.4594 10.8722 22.9922 12.0495 22.9922 12.9497C22.9922 13.9192 21.3563 15.1706 19.0172 15.9868Z" fill="#FFBB00"/>
<path d="M11.8335 15.2408C11.798 15.2408 11.768 15.2279 11.7435 15.202L10.4666 13.902C10.4529 13.8905 10.4342 13.8718 10.4103 13.8459C10.3864 13.82 10.3485 13.7729 10.2967 13.7044C10.2449 13.6361 10.1985 13.5659 10.1576 13.494C10.1167 13.422 10.0801 13.3349 10.0481 13.2327C10.016 13.1305 10 13.0312 10 12.9347C10 12.618 10.0866 12.3704 10.2599 12.1919C10.4331 12.0134 10.6726 11.9241 10.9781 11.9241C11.0627 11.9241 11.149 11.9396 11.237 11.9706C11.3249 12.0015 11.4068 12.0433 11.4825 12.0958C11.5582 12.1484 11.6234 12.1977 11.678 12.2437C11.7325 12.2898 11.7844 12.3387 11.8335 12.3906C11.8826 12.3387 11.9344 12.2898 11.989 12.2437C12.0436 12.1977 12.1087 12.1484 12.1844 12.0958C12.2601 12.0433 12.3419 12.0015 12.43 11.9706C12.518 11.9396 12.6043 11.9241 12.6888 11.9241C12.9944 11.9241 13.2338 12.0134 13.4071 12.1919C13.5804 12.3704 13.667 12.618 13.667 12.9347C13.667 13.2529 13.5108 13.5768 13.1984 13.9064L11.9236 15.202C11.899 15.2279 11.869 15.2408 11.8335 15.2408Z" fill="#FFBB00"/>
</svg>
