<svg width="77" height="77" viewBox="0 0 77 77" fill="none" xmlns="http://www.w3.org/2000/svg">
<path d="M38.4999 45.3577C42.2874 45.3577 45.3577 42.2874 45.3577 38.4999C45.3577 34.7124 42.2874 31.6421 38.4999 31.6421C34.7124 31.6421 31.6421 34.7124 31.6421 38.4999C31.6421 42.2874 34.7124 45.3577 38.4999 45.3577Z" fill="#FFBB00"/>
<path d="M64.5478 27.1905C63.2243 26.7093 61.8407 26.228 60.397 25.8069C60.7579 24.3632 61.0587 22.9194 61.2993 21.5358C62.5626 13.5952 61.179 8.00068 57.329 5.83506C56.186 5.17334 54.9228 4.87256 53.479 4.87256C49.2681 4.87256 43.9142 8.00068 38.5001 13.2343C33.086 8.00068 27.7321 4.87256 23.5212 4.87256C22.0774 4.87256 20.8142 5.17334 19.6712 5.83506C15.8212 8.06084 14.4376 13.6554 15.7009 21.5358C15.9415 22.9194 16.2423 24.3632 16.6032 25.8069C15.1595 26.228 13.7759 26.6491 12.4524 27.1905C4.93291 30.078 0.842285 34.0483 0.842285 38.4999C0.842285 42.9515 4.99307 46.9218 12.4524 49.8093C13.7759 50.2905 15.1595 50.7718 16.6032 51.1929C16.2423 52.6366 15.9415 54.0804 15.7009 55.464C14.4376 63.4046 15.8212 68.9991 19.6712 71.1647C20.8142 71.8265 22.0774 72.1272 23.5212 72.1272C27.7923 72.1272 33.1462 68.9991 38.5001 63.7655C43.9142 68.9991 49.2681 72.1272 53.479 72.1272C54.9228 72.1272 56.186 71.8265 57.329 71.1647C61.179 68.939 62.5626 63.3444 61.2993 55.464C61.0587 54.0804 60.7579 52.6366 60.397 51.1929C61.8407 50.7718 63.2243 50.3507 64.5478 49.8093C72.0673 46.9218 76.1579 42.9515 76.1579 38.4999C76.1579 34.0483 72.0673 30.078 64.5478 27.1905ZM55.6446 8.84287C58.111 10.2866 58.9532 14.7382 57.9306 21.0546C57.7501 22.3179 57.4493 23.6413 57.0884 25.0249C53.9603 24.303 50.6517 23.8218 47.1626 23.521C45.1173 20.6335 43.0118 18.0468 40.9063 15.7007C45.3579 11.3093 49.8696 8.30146 53.5392 8.30146C54.3212 8.30146 55.0431 8.48193 55.6446 8.84287ZM48.9071 44.5155C47.8243 46.4405 46.561 48.3655 45.2376 50.2905C43.0118 50.471 40.786 50.5311 38.5001 50.5311C36.154 50.5311 33.9282 50.471 31.7626 50.2905C30.4392 48.3655 29.236 46.4405 28.1532 44.5155C27.0103 42.5304 25.9274 40.4851 24.9649 38.4999C25.9274 36.5147 27.0103 34.4694 28.1532 32.4843C29.236 30.5593 30.4993 28.6343 31.8228 26.7093C34.0485 26.5288 36.2743 26.4687 38.5603 26.4687C40.9063 26.4687 43.1321 26.5288 45.2978 26.7093C46.6212 28.6343 47.8243 30.5593 48.9071 32.4843C50.0501 34.4694 51.1329 36.5147 52.0954 38.4999C51.0728 40.4851 50.0501 42.4702 48.9071 44.5155ZM53.9001 42.5304C54.8024 44.6358 55.5243 46.6811 56.186 48.7265C54.1407 49.2077 51.9751 49.5686 49.6892 49.8694C50.411 48.7265 51.1931 47.5233 51.8548 46.2601C52.5767 44.9968 53.2384 43.7335 53.9001 42.5304ZM38.5001 58.8327C37.0564 57.2687 35.6728 55.5843 34.3493 53.8397C35.7329 53.8999 37.1165 53.9601 38.5001 53.9601C39.8837 53.9601 41.2673 53.8999 42.6509 53.8397C41.3274 55.5843 39.9439 57.2687 38.5001 58.8327ZM27.311 49.8093C25.0251 49.5085 22.8595 49.1476 20.8142 48.6663C21.4759 46.6811 22.1978 44.5757 23.1001 42.4702C23.7618 43.6733 24.4235 44.9366 25.1454 46.1397C25.8673 47.4632 26.5892 48.6062 27.311 49.8093ZM23.1001 34.4694C22.1978 32.364 21.4759 30.3187 20.8142 28.2733C22.8595 27.7921 25.0251 27.4312 27.311 27.1304C26.5892 28.2733 25.8071 29.4765 25.1454 30.7397C24.4235 32.003 23.7618 33.2663 23.1001 34.4694ZM38.5001 18.1671C39.9439 19.7312 41.3274 21.4155 42.6509 23.1601C41.2673 23.0999 39.8837 23.0397 38.5001 23.0397C37.1165 23.0397 35.7329 23.0999 34.3493 23.1601C35.6728 21.4155 37.0564 19.7312 38.5001 18.1671ZM51.8548 30.7999L49.6892 27.1905C51.9751 27.4913 54.1407 27.8522 56.186 28.3335C55.5243 30.3186 54.8024 32.4241 53.9001 34.5296C53.2384 33.2663 52.5767 32.003 51.8548 30.7999ZM19.0696 21.0546C18.047 14.7382 18.8892 10.2866 21.3556 8.84287C21.9571 8.48193 22.679 8.30146 23.461 8.30146C27.0704 8.30146 31.5821 11.2491 36.0938 15.7007C33.9884 17.9866 31.8829 20.6335 29.8376 23.521C26.3485 23.8218 23.0399 24.3632 19.9118 25.0249C19.5509 23.6413 19.3103 22.3179 19.0696 21.0546ZM4.21104 38.4999C4.21104 35.6726 7.63994 32.6647 13.6556 30.439C14.8587 29.9577 16.1821 29.5366 17.5056 29.1757C18.4681 32.1835 19.6712 35.3718 21.1149 38.5601C19.6712 41.7483 18.4079 44.8765 17.5056 47.8843C9.20401 45.478 4.21104 41.8686 4.21104 38.4999ZM21.3556 68.1569C18.8892 66.7132 18.047 62.2616 19.0696 55.9452C19.2501 54.6819 19.5509 53.3585 19.9118 51.9749C23.0399 52.6968 26.3485 53.178 29.8376 53.4788C31.8829 56.3663 33.9884 58.953 36.0938 61.2991C31.6423 65.6905 27.1306 68.6983 23.461 68.6983C22.679 68.6983 21.9571 68.5179 21.3556 68.1569ZM57.9306 55.9452C58.9532 62.2616 58.111 66.7132 55.6446 68.1569C55.0431 68.5179 54.3212 68.6983 53.5392 68.6983C49.9298 68.6983 45.4181 65.7507 40.9063 61.2991C43.0118 59.0132 45.1173 56.3663 47.1626 53.4788C50.6517 53.178 53.9603 52.6366 57.0884 51.9749C57.4493 53.3585 57.6899 54.6819 57.9306 55.9452ZM63.3446 46.5608C62.1415 47.0421 60.8181 47.4632 59.4946 47.8241C58.5321 44.8163 57.329 41.628 55.8853 38.4397C57.329 35.2515 58.5923 32.1233 59.4946 29.1155C67.7962 31.5218 72.7892 35.1312 72.7892 38.4999C72.7892 41.3272 69.3001 44.3351 63.3446 46.5608Z" fill="#FFBB00"/>
</svg>
