<svg width="77" height="77" viewBox="0 0 77 77" fill="none" xmlns="http://www.w3.org/2000/svg">
<path fill-rule="evenodd" clip-rule="evenodd" d="M0.733398 33.7813C0.733398 34.2042 0.857922 34.4834 0.927703 34.7547C1.38248 36.5191 2.36002 38.0332 3.51984 39.4144C5.17173 41.3827 7.19478 42.9672 9.26716 44.4573C11.0646 45.7494 12.8988 47.0127 14.7035 48.2952C15.0133 48.5154 15.3063 48.7687 15.6425 49.0388C15.3532 49.1952 15.1125 49.3329 14.8623 49.4599C12.4807 50.6678 10.1894 52.0219 8.07727 53.6624C6.80437 54.6514 5.57357 55.7023 4.70431 57.0756C3.30568 59.2846 2.81059 61.6379 3.8531 64.1506C4.15749 64.8845 4.6219 65.5186 5.277 65.9872C5.48935 66.1388 5.72757 66.2892 5.97602 66.3481C6.61247 66.4979 7.26095 66.596 7.90523 66.7145L9.72977 66.7133C11.7474 66.5334 13.584 65.8422 15.2437 64.6968C17.8376 62.9066 19.5852 60.5064 20.3365 57.4258C20.8827 55.1867 20.905 52.9453 20.2613 50.7165C20.2018 50.5096 20.1266 50.3069 20.0484 50.1065C19.9702 49.9062 19.8781 49.7113 19.7698 49.4617L23.9062 47.0831L23.9681 47.136C23.893 47.3821 23.8129 47.6275 23.745 47.876C23.2535 49.671 22.9268 51.4974 23.0441 53.3604C23.1693 55.3456 23.7233 57.2038 24.8855 58.8623C25.8252 60.2038 28.0642 60.2537 29.0628 58.9074C29.4171 58.4292 29.7606 57.9293 30.0187 57.3957C30.693 56.0031 31.3174 54.5858 31.9617 53.1781L32.0742 52.9207C32.0279 53.5872 31.9737 54.1725 31.9491 54.7584C31.9106 55.6734 31.9641 56.583 32.2769 57.4534C32.5446 58.1982 33 58.7546 33.853 58.8527C34.4365 58.9194 34.9015 58.6523 35.3305 58.3137C36.0006 57.7849 36.545 57.1316 36.9493 56.3893C38.0928 54.2892 39.2671 52.2018 40.3036 50.0488C41.4249 47.7201 42.4054 45.3235 43.4467 42.9552L43.6188 42.5353C43.8648 43.502 44.0363 44.4488 44.3521 45.3452C44.719 46.3853 45.1732 47.4007 45.6677 48.3879C45.9017 48.8541 45.8746 49.1567 45.5504 49.5477C44.1933 51.1839 42.8596 52.84 41.5247 54.4943C41.2294 54.8595 40.9352 55.2313 40.6892 55.6301C40.5406 55.8725 40.4419 56.1679 40.4004 56.4506C40.3204 56.9908 40.6543 57.5118 41.2324 57.6363C41.7606 57.75 42.323 57.7921 42.8614 57.7524C44.7245 57.6152 46.416 56.9614 47.9115 55.8533C49.8492 54.4179 50.4712 52.4593 50.002 50.1378C49.875 49.508 49.6507 48.8956 49.4323 48.2886C49.3342 48.0149 49.3276 47.823 49.5063 47.568C51.0553 45.356 52.3787 43.0093 53.6095 40.6085C53.6583 40.514 53.7082 40.4196 53.7936 40.3185C54.1925 42.3939 54.7928 44.3941 55.8684 46.209C55.3198 46.7378 54.7766 47.2172 54.2851 47.7454C53.2029 48.9088 52.2644 50.1721 51.7748 51.7127C51.5642 52.3768 51.4024 53.0518 51.4962 53.761C51.6418 54.8625 52.5442 55.5784 53.6276 55.3275C55.946 54.7909 57.9474 53.6985 59.4098 51.7632C60.394 50.4603 60.4836 49.0069 60.0715 47.4843C59.9584 47.0705 59.8243 46.6632 59.6799 46.1886C60.252 46.0111 60.8096 45.7982 61.3865 45.6664C64.3817 44.983 67.3444 45.1021 70.2307 46.1838C71.9157 46.8154 73.277 47.8723 74.0843 49.5351C75.0703 51.5677 74.5253 53.4964 72.6093 54.7813C72.4306 54.901 72.2261 54.9954 72.0781 55.1452C71.9873 55.2373 71.9325 55.4213 71.9548 55.5483C71.9674 55.6223 72.1629 55.7149 72.2754 55.7137C72.9053 55.7089 73.416 55.3786 73.9063 55.0394C75.1347 54.1894 76.031 53.0458 76.2241 51.5401L76.262 51.427L76.2157 50.4464C76.197 50.3899 76.2295 50.3339 76.2253 50.2912C75.9642 48.0985 74.793 46.3979 73.0893 45.0649C71.1162 43.5218 68.7864 42.8866 66.3224 42.7861C64.3143 42.7043 62.3406 43.0027 60.4481 43.6903C59.9085 43.8858 59.3737 44.1174 58.8311 44.3358C58.7583 44.204 58.6801 44.0777 58.6157 43.9471C58.0587 42.8066 57.3837 41.7166 57.2346 40.4088C57.1287 39.4799 56.9987 38.5523 57.2195 37.6338C57.4319 36.7501 57.7086 35.8814 57.9691 35.0097C58.1032 34.561 58.0088 34.3095 57.5805 34.1074C57.4313 34.037 57.2688 33.9756 57.1076 33.9522C56.0549 33.7994 55.0166 33.8866 53.9969 34.1832C53.636 34.2885 53.3737 34.4906 53.2937 34.89C53.248 35.1192 53.1548 35.3388 53.0898 35.565C52.8233 36.5052 52.6344 37.4635 52.2037 38.3592C51.1245 40.6061 49.8925 42.7681 48.6316 44.9145C48.4951 45.1461 48.3513 45.3735 48.1792 45.6544C47.7365 44.728 47.2643 43.8966 47.1211 42.9221C46.9593 41.82 46.8317 40.7198 47.106 39.6261C47.31 38.8104 47.5765 38.0097 47.8219 37.2048C47.938 36.8222 47.8845 36.6213 47.538 36.4198C47.3629 36.3181 47.165 36.2279 46.9677 36.1984C45.8758 36.0366 44.8003 36.1214 43.7469 36.4619C43.4203 36.5678 43.2488 36.7789 43.149 37.1158C42.8554 38.1096 42.6052 39.1274 42.1931 40.0725C40.5243 43.8984 38.8075 47.7045 37.0924 51.51C36.7345 52.3047 36.3152 53.0717 35.9116 53.8453C35.8093 54.0414 35.6601 54.214 35.5326 54.3981C35.4303 54.2772 35.3906 54.1942 35.3912 54.1111C35.3942 53.6221 35.3359 53.1186 35.4291 52.6457C35.7113 51.2152 36.0361 49.7925 36.3784 48.3753C36.6611 47.2046 36.9902 46.0448 37.3036 44.882C37.4089 44.4928 37.4107 44.1288 37.1309 43.8016C36.6611 43.2535 35.6794 43.1332 35.0971 43.5555L34.8396 43.7011L34.8895 43.286C35.0122 42.3963 35.0369 41.5096 34.7927 40.6331C34.4883 39.5407 33.7086 38.9121 32.5753 38.947C32.0471 38.9632 31.4925 39.0534 31.0034 39.2459C28.9467 40.052 27.3652 41.4795 26.0189 43.197C25.8968 43.3528 25.7355 43.4948 25.5635 43.5904C23.8232 44.5553 22.0774 45.5082 20.3323 46.4647L18.3899 47.5289C17.8689 47.032 17.3955 46.5164 16.8583 46.0791C15.2178 44.7412 13.5509 43.4364 11.899 42.1136C10.4348 40.9411 9.01631 39.72 7.93109 38.1673C7.1238 37.0123 6.60345 35.7485 6.55352 34.3203C6.49035 32.5006 7.00649 30.8379 7.9329 29.2901C9.11798 27.3097 10.7344 25.7204 12.5114 24.2809C14.3913 22.7589 16.4246 21.4668 18.5318 20.2871C21.4801 18.637 24.5126 17.1764 27.764 16.2121C31.0979 15.2231 34.4805 14.6571 37.9695 15.0517C39.3411 15.2069 40.6729 15.5209 41.8959 16.1917C42.8325 16.7048 43.6007 17.3767 43.9581 18.4271C44.3106 19.4605 44.2998 20.5079 44.0555 21.5576C43.5592 23.6835 42.3952 25.4359 40.9304 27.0017C38.5278 29.5686 35.597 31.3161 32.2974 32.4705C30.3934 33.1365 28.4347 33.5546 26.4231 33.7236C24.7815 33.8614 23.1741 33.7158 21.6196 33.1449C20.5904 32.7665 19.694 32.1878 18.9734 31.348C18.8446 31.1976 18.6798 31.0346 18.4398 31.1754C18.2046 31.3137 18.1631 31.5375 18.2419 31.7643C18.3736 32.1409 18.4951 32.5331 18.7003 32.87C19.2158 33.7152 19.9678 34.3282 20.7955 34.8539C22.3854 35.8652 24.1625 36.205 26.005 36.2838C28.8011 36.4048 31.5292 35.9873 34.2188 35.2371C38.0585 34.1663 41.3972 32.275 44.0748 29.2913C46.3042 26.8068 47.8965 24.0029 48.2376 20.6174C48.4042 18.9649 48.2268 17.3461 47.4531 15.8385C46.614 14.2053 45.2797 12.9907 43.6844 12.154C41.3611 10.9358 38.8538 10.2266 36.2659 10.2266H33.6732C30.539 10.2266 27.5089 11.1247 24.5637 12.1961C22.3343 13.0076 20.1482 13.9653 18.0259 15.0252C13.4041 17.3346 9.09993 20.1193 5.56455 23.9482C3.80317 25.8558 2.3119 27.9606 1.45407 30.4391C1.20322 31.1645 0.965 31.9424 0.785734 32.6925L0.733398 33.7813ZM17.5326 54.3566C17.3323 57.039 16.1166 59.2136 14.1296 60.975C13.0119 61.9651 11.73 62.6702 10.2369 62.918C9.69548 63.0077 9.14144 63.0293 8.61627 62.8049C7.86733 62.4849 7.69949 61.8202 7.68505 61.1121C7.6628 59.9836 8.05802 58.9634 8.60003 57.9924C9.30747 56.7267 10.3446 55.7618 11.452 54.8607C13.1966 53.4404 15.0891 52.2385 17.0273 51.1039L17.1735 51.0438C17.4731 52.1507 17.6156 53.2437 17.5326 54.3566ZM32.6667 42.6989C32.5254 43.5555 32.3485 44.4128 32.0983 45.2429C31.2332 48.1166 30.1221 50.9012 28.9208 53.6485C28.6988 54.1569 28.3758 54.6207 28.0949 55.1025C28.0516 55.1771 27.9872 55.2415 27.9246 55.3034C27.5769 55.6469 27.2473 55.6289 27.0716 55.1795C26.8671 54.6574 26.7414 54.0985 26.6331 53.5457C26.5603 53.1745 26.5777 52.7847 26.5549 52.4045C26.5783 49.7011 27.4031 47.2443 28.8023 44.9572C29.3792 44.0139 30.0072 43.1152 30.9667 42.5184C31.2615 42.335 31.5924 42.1876 31.9262 42.0937C32.4375 41.95 32.7516 42.1864 32.6667 42.6989ZM42.992 55.8539L46.703 51.5208C46.8576 53.13 44.1223 56.3423 42.992 55.8539ZM54.8445 52.9381C54.5823 53.0885 54.2965 53.1968 54.0276 53.3357C53.7816 53.4633 53.7004 53.3345 53.6932 53.1228C53.6883 52.979 53.7094 52.8286 53.7491 52.6891C54.2502 50.9217 55.1724 49.4129 56.5446 48.1858L56.6408 48.1364C57.2935 49.9622 56.5391 51.9672 54.8445 52.9381Z" fill="#FFBB00"/>
</svg>
