<svg width="157" height="33" viewBox="0 0 157 33" fill="none" xmlns="http://www.w3.org/2000/svg">
<path d="M62 9H56V28H62V9Z" fill="white"/>
<path d="M59 6C60.6569 6 62 4.65685 62 3C62 1.34315 60.6569 0 59 0C57.3431 0 56 1.34315 56 3C56 4.65685 57.3431 6 59 6Z" fill="#FFBB00"/>
<path d="M34.804 28L33.4 22.42H25.588L24.184 28H18.676L26.344 3.08801H32.788L40.42 28H34.804ZM26.596 18.496H32.392L29.476 7.01201L26.596 18.496ZM53.0178 8.38001C53.5938 8.38001 54.2298 8.47601 54.9258 8.66801L54.0618 13.6C53.3898 13.432 52.8258 13.348 52.3698 13.348C51.2418 13.348 50.3658 13.744 49.7418 14.536C49.1178 15.328 48.6258 16.528 48.2658 18.136V28H43.1538V8.92001H47.5818L48.0498 12.628C48.5058 11.284 49.1658 10.24 50.0298 9.49601C50.9178 8.75201 51.9138 8.38001 53.0178 8.38001Z" fill="white"/>
<path d="M15.0501 9.05005L16.6601 12.655L5.49508 17.345L16.6601 21.965L15.0501 25.64L1.33008 19.585V15.105L15.0501 9.05005Z" fill="#FFBB00"/>
<path d="M132.06 0.51001L136.365 1.49001L128.175 32.85L123.835 31.835L132.06 0.51001ZM142.649 9.05001L156.369 15.105V19.585L142.649 25.64L141.039 21.965L152.204 17.345L141.039 12.655L142.649 9.05001Z" fill="#FFBB00"/>
<path d="M79.625 22.855C79.625 23.5783 79.73 24.115 79.94 24.465C80.15 24.7917 80.5 25.0367 80.99 25.2L79.94 28.49C78.8433 28.3967 77.945 28.14 77.245 27.72C76.5683 27.3 76.0433 26.6467 75.67 25.76C74.4567 27.6267 72.6017 28.56 70.105 28.56C68.2617 28.56 66.7917 28.035 65.695 26.985C64.6217 25.9117 64.085 24.5233 64.085 22.82C64.085 20.79 64.82 19.2383 66.29 18.165C67.76 17.0917 69.8717 16.555 72.625 16.555H74.76V15.645C74.76 14.5017 74.5033 13.7083 73.99 13.265C73.4767 12.8217 72.625 12.6 71.435 12.6C70.1283 12.6 68.495 12.9267 66.535 13.58L65.415 10.255C67.725 9.34501 70.0117 8.89001 72.275 8.89001C74.795 8.89001 76.65 9.43834 77.84 10.535C79.03 11.6083 79.625 13.2183 79.625 15.365V22.855ZM71.47 24.99C72.87 24.99 73.9667 24.3017 74.76 22.925V19.39H73.115C70.4317 19.39 69.09 20.3933 69.09 22.4C69.09 23.2167 69.2883 23.8583 69.685 24.325C70.105 24.7683 70.7 24.99 71.47 24.99ZM95.4756 8.89001C97.109 8.89001 98.3806 9.39168 99.2906 10.395C100.201 11.375 100.656 12.74 100.656 14.49V28H95.6856V15.33C95.6856 14.3267 95.5106 13.6267 95.1606 13.23C94.834 12.81 94.3323 12.6 93.6556 12.6C92.9556 12.6 92.314 12.8217 91.7306 13.265C91.1706 13.685 90.6223 14.3267 90.0856 15.19V28H85.1156V9.45001H89.4206L89.8056 11.795C90.5756 10.8383 91.4156 10.115 92.3256 9.62501C93.259 9.13501 94.309 8.89001 95.4756 8.89001ZM121.589 18.305C121.589 18.5383 121.554 19.18 121.484 20.23H109.899C110.063 21.91 110.518 23.1 111.264 23.8C112.011 24.5 113.026 24.85 114.309 24.85C115.103 24.85 115.849 24.7217 116.549 24.465C117.249 24.2083 118.008 23.8 118.824 23.24L120.889 26.04C118.813 27.72 116.468 28.56 113.854 28.56C110.938 28.56 108.698 27.685 107.134 25.935C105.571 24.185 104.789 21.8167 104.789 18.83C104.789 16.94 105.116 15.2483 105.769 13.755C106.446 12.2383 107.414 11.0483 108.674 10.185C109.958 9.32168 111.474 8.89001 113.224 8.89001C115.861 8.89001 117.914 9.71834 119.384 11.375C120.854 13.0317 121.589 15.3417 121.589 18.305ZM116.654 16.905C116.654 13.825 115.546 12.285 113.329 12.285C112.303 12.285 111.498 12.67 110.914 13.44C110.354 14.1867 110.016 15.4117 109.899 17.115H116.654V16.905Z" fill="white"/>
</svg>
